<svg xmlns:dc="http://purl.org/dc/elements/1.1/" xmlns:cc="http://creativecommons.org/ns#" xmlns:rdf="http://www.w3.org/1999/02/22-rdf-syntax-ns#" xmlns:svg="http://www.w3.org/2000/svg" xmlns="http://www.w3.org/2000/svg" viewBox="0 0 360 360" fill="none"><metadata><rdf:RDF><cc:Work><dc:format>image/svg+xml</dc:format><dc:type rdf:resource="http://purl.org/dc/dcmitype/StillImage"/><dc:title>Avatar Illustration System</dc:title><dc:creator><cc:Agent><dc:title>Micah Lanier</dc:title></cc:Agent></dc:creator><dc:source>https://www.figma.com/community/file/829741575478342595</dc:source><cc:license rdf:resource="https://creativecommons.org/licenses/by/4.0/"/></cc:Work><cc:License rdf:about="https://creativecommons.org/licenses/by/4.0/"><cc:permits rdf:resource="https://creativecommons.org/ns#Reproduction"/><cc:permits rdf:resource="https://creativecommons.org/ns#Distribution"/><cc:permits rdf:resource="https://creativecommons.org/ns#DerivativeWorks"/><cc:requires rdf:resource="https://creativecommons.org/ns#Notice"/><cc:requires rdf:resource="https://creativecommons.org/ns#Attribution"/></cc:License></rdf:RDF></metadata><mask id="avatarsRadiusMask"><rect width="360" height="360" rx="0" ry="0" x="0" y="0" fill="#fff"/></mask><g mask="url(#avatarsRadiusMask)"><g transform="translate(80 23)"><path d="M154 319.5c-14.4-20-25.667-58.666-27-78L58.5 212 30 319.5h124Z" fill="rgba(249, 201, 182, 1)" stroke="#000" stroke-width="4"/><mask id="baseStandard-a" style="mask-type:alpha" maskUnits="userSpaceOnUse" x="30" y="212" width="124" height="118"><path d="M154 329.5c-14.4-20-25.667-68.666-27-88L58.5 212 30 329.5h124Z" fill="rgba(249, 201, 182, 1)"/></mask><g mask="url(#baseStandard-a)"><ellipse cx="124" cy="210" rx="59" ry="54" fill="#000" style="mix-blend-mode:multiply"/></g><path d="m181.939 151.374.002.009.093.389.144.654c8.851 40.206-16.109 80.258-56.315 89.89-40.205 9.633-80.606-14.759-90.935-54.61l-.19-.733-16.735-69.844-.067-.289C8.512 76.334 33.544 35.757 74.048 26.053c40.504-9.704 81.206 15.123 91.161 55.501l.051.208.02.083.001.005.048.198.047.199.002.004 16.396 68.437.003.009.081.338.081.339Z" fill="rgba(249, 201, 182, 1)" stroke="#000" stroke-width="4"/><g><g transform="translate(34 102.3)"><path d="M146.126 49.154c9.489 39.604-14.925 79.402-54.529 88.891-23.307 5.584-46.68-.574-63.905-14.659C10.5 107.5 6.5 56 2.692 31.649c14 31.5 49.624 33.946 83.5 28.002 28.5-5.001 51.299-6.001 51.299-45.001 1.885 2.616 6.978 27.587 8.635 34.504Z" fill="rgba(119, 49, 29, 1)"/></g></g></g><g transform="translate(170 183)"><rect x="-6.752" y="17.471" width="70" height="24" rx="4" transform="rotate(-4 -6.752 17.47)" fill="rgba(0, 0, 0, 1)"/><path d="M56.821 13.025-.496 17.033l1.84 7.005a6 6 0 0 0 6.222 4.461 6 6 0 0 0-5.54 5.283l-.848 7.193 57.317-4.008-1.84-7.005a6 6 0 0 0-6.221-4.46 6 6 0 0 0 5.54-5.284l.847-7.193Z" fill="#fff"/><path d="m66.42 31.704-1.02-14.57c-.257-3.686-3.737-6.254-7.32-5.485-6.945 1.49-20.222 4.134-29.818 4.805-9.595.671-23.111-.099-30.195-.609-3.656-.263-6.744 2.765-6.486 6.451l1.018 14.57c.258 3.686 3.737 6.254 7.322 5.485 6.944-1.49 20.221-4.134 29.816-4.805 9.596-.671 23.112.099 30.196.608 3.656.264 6.744-2.764 6.486-6.45Z" stroke="rgba(0, 0, 0, 1)" stroke-width="4"/></g><g transform="translate(110 102)"><g stroke="rgba(0, 0, 0, 1)" stroke-width="4" stroke-linecap="round"><path d="M99 10.214c5.667-2.666 19-5.1 27 6.5M23.58 35.521c2.07-5.91 9.681-17.125 23.562-14.699"/></g></g><g transform="translate(49 11)"><path d="M210.178 49.397c-1.264 6.057-4.603 11.325-9.428 15.902 9.392 34.064 9.604 53.868 4.384 57.648l-14.796-49.986C158.389 91.7 98.645 94.896 83.678 94.896a57.652 57.652 0 0 0-4.429.675C64.603 104.563 76.656 147.688 91 166l-11 2c-5.14-24.966-17.413-22.916-26.612-21.38l-.317.053c2.194 13.631 6.723 27.733 10.445 39.319a691.626 691.626 0 0 1 2.662 8.404c-.784.105-1.474.297-2.116.475-5.503 1.527-7.413 2.058-33.384-61.975-6.467-15.944-6.026-30.153-.968-42.611-4.78-4.806-14.37-7.15-19.71-7.785 10.44-6.12 20.582-4.87 25.544-3.1a68.676 68.676 0 0 1 1.555-2.218c-.97-4.412-7.964-9.46-12.11-11.819 8.56-4.31 18.62-2.035 22.992-.21C67.63 47.136 97.025 35.053 122 28.998 170.815 17.165 189.5.502 189.5.502 210.178 9 215.117 25.718 210.178 49.397Z" fill="rgba(119, 49, 29, 1)" stroke="#000" stroke-width="4"/></g><g transform="translate(142 119)"><g fill="#000"><ellipse cx="16.53" cy="29.402" rx="9" ry="13.5" transform="rotate(-6.776 16.53 29.402)"/><ellipse cx="80.531" cy="19.402" rx="9" ry="13.5" transform="rotate(-6.276 80.531 19.402)"/></g><g transform="translate(-40 -8)"/></g><g transform="rotate(-8 1149.438 -1186.916)"><path d="M16.5 3c0 14 7 25 7 25S20 34 10 32" stroke="#000" stroke-width="4"/></g><g transform="translate(84 154)"><path d="M30.5 6.176A23.778 23.778 0 0 0 23.08 5c-10.493 0-19 6.5-18 18.5 1.042 12.5 8.507 17 19 17 1.168 0 2.31-.102 3.42-.299 1.21-.214 2.381-.54 3.5-.966" stroke="#000" stroke-width="8"/><path d="M31.5 39.036a19.382 19.382 0 0 1-7.42 1.464c-10.493 0-17.958-4.5-19-17-1-12 7.507-18.5 18-18.5 3.138 0 6.187.606 8.92 1.73l-.5 32.306Z" fill="rgba(249, 201, 182, 1)"/><path d="M27.5 13.5c-4-1.833-12.8-2.8-16 8" stroke="#000" stroke-width="4"/><path d="M17 14c2.167 1.833 6.3 7.5 5.5 15.5" stroke="#000" stroke-width="4"/><g transform="translate(3 35)"/></g><g transform="translate(53 272)"><g stroke="#000" stroke-width="4"><path d="M126.771 67.578 128 66l-1.229 1.578 1.722 1.34 1.186-1.83v-.001l.002-.003.009-.014.041-.063.038-.058.131-.196c.15-.225.375-.558.67-.984.588-.85 1.453-2.067 2.548-3.523 2.194-2.914 5.298-6.764 8.953-10.528 3.666-3.773 7.827-7.4 12.127-9.925 4.316-2.533 8.579-3.844 12.535-3.31 42.438 5.722 73.669 24.519 93.941 52.518h-273.3c16.3-29.342 39.484-48.019 77.07-56.588 1.602-.366 3.78-.255 6.503.379 2.695.626 5.768 1.727 9.081 3.184 6.627 2.913 14.024 7.16 20.976 11.56 6.941 4.394 13.386 8.907 18.1 12.324a364.95 364.95 0 0 1 5.605 4.144c.665.502 1.182.896 1.532 1.165l.398.306.1.078.025.02.006.004h.001Z" fill="rgba(252, 144, 159, 1)"/><path d="m52.613 37.085 5.166-19.232c.21-.779 1.217-.999 1.761-.404 14.863 16.265 33.62 15.627 39.845 14.88.845-.1 1.507.824 1.11 1.577L87.338 58.859a.95.95 0 0 1-1.038.505c-3.948-.823-23.623-5.632-33.571-21.497a.991.991 0 0 1-.116-.782ZM183.195 36.981 171.615 17.5c-.393-.662-1.362-.65-1.781-.005-5.737 8.836-15.632 12.906-19.092 14.108-.622.217-.907.956-.571 1.523l13.502 22.815c.202.34.582.525.963.417 2.135-.608 9.46-3.672 18.546-18.336.196-.315.203-.72.013-1.04Z" fill="rgba(252, 144, 159, 1)"/><path d="m52.613 37.085 5.166-19.232c.21-.779 1.217-.999 1.761-.404 14.863 16.265 33.62 15.627 39.845 14.88.845-.1 1.507.824 1.11 1.577L87.338 58.859a.95.95 0 0 1-1.038.505c-3.948-.823-23.623-5.632-33.571-21.497a.991.991 0 0 1-.116-.782ZM183.195 36.981 171.615 17.5c-.393-.662-1.362-.65-1.781-.005-5.737 8.836-15.632 12.906-19.092 14.108-.622.217-.907.956-.571 1.523l13.502 22.815c.202.34.582.525.963.417 2.135-.608 9.46-3.672 18.546-18.336.196-.315.203-.72.013-1.04Z" fill="#fff" fill-opacity=".75"/><path d="m109.5 54.5-9-21.5-7 15 16 6.5ZM141 53.5l9-21.5 7 15-16 6.5ZM70.5 14l-12 3 10 6.5 2-9.5ZM160 14l11 3-7 6.5-4-9.5Z" fill="#000" stroke-linejoin="round"/></g></g></g></svg>